<svg id="visual" viewBox="0 0 960 540" width="960" height="540" xmlns="http://www.w3.org/2000/svg" xmlns:xlink="http://www.w3.org/1999/xlink" version="1.1"><rect x="0" y="0" width="960" height="540" fill="#12b886"></rect><path d="M0 286L17.8 276.3C35.7 266.7 71.3 247.3 106.8 245.5C142.3 243.7 177.7 259.3 213.2 270.7C248.7 282 284.3 289 320 280.3C355.7 271.7 391.3 247.3 426.8 243.5C462.3 239.7 497.7 256.3 533.2 261.2C568.7 266 604.3 259 640 250.5C675.7 242 711.3 232 746.8 243.3C782.3 254.7 817.7 287.3 853.2 303C888.7 318.7 924.3 317.3 942.2 316.7L960 316L960 541L942.2 541C924.3 541 888.7 541 853.2 541C817.7 541 782.3 541 746.8 541C711.3 541 675.7 541 640 541C604.3 541 568.7 541 533.2 541C497.7 541 462.3 541 426.8 541C391.3 541 355.7 541 320 541C284.3 541 248.7 541 213.2 541C177.7 541 142.3 541 106.8 541C71.3 541 35.7 541 17.8 541L0 541Z" fill="#FFFFFF" stroke-linecap="round" stroke-linejoin="miter"></path></svg>