<?xml version="1.0" standalone="no"?>
<!DOCTYPE svg PUBLIC "-//W3C//DTD SVG 20010904//EN"
 "http://www.w3.org/TR/2001/REC-SVG-20010904/DTD/svg10.dtd">
<svg version="1.0" xmlns="http://www.w3.org/2000/svg"
 width="192.000000pt" height="192.000000pt" viewBox="0 0 192.000000 192.000000"
 preserveAspectRatio="xMidYMid meet">

<g transform="translate(0.000000,192.000000) scale(0.100000,-0.100000)"
fill="#000000" stroke="none">
<path d="M1230 1584 c-139 -37 -244 -153 -279 -305 -15 -64 -13 -245 3 -305
20 -74 73 -169 117 -209 52 -47 131 -85 190 -92 l49 -6 0 37 c0 20 -4 36 -10
36 -5 0 -18 10 -30 22 -19 21 -20 33 -20 370 0 335 1 349 20 368 11 11 25 20
30 20 6 0 10 18 10 40 0 45 0 45 -80 24z"/>
<path d="M1370 1565 c0 -24 9 -42 30 -63 l30 -30 0 -301 0 -300 -50 2 c-78 3
-113 -52 -42 -68 17 -3 38 -15 47 -25 16 -18 16 -19 -4 -32 -15 -9 -21 -23
-21 -50 l0 -37 38 6 c20 3 44 9 52 13 9 5 26 0 44 -13 45 -32 140 -36 194 -8
45 23 65 51 56 75 -7 19 -9 19 -52 7 -29 -9 -92 2 -92 15 0 3 18 28 39 57 70
92 101 194 101 326 -1 134 -40 252 -115 338 -40 47 -154 108 -217 117 -37 5
-38 4 -38 -29z"/>
<path d="M212 1568 c-21 -21 -14 -48 15 -59 15 -6 31 -16 35 -22 4 -7 8 -169
8 -360 l0 -348 -35 -20 c-39 -23 -46 -53 -16 -69 29 -15 384 -13 399 2 21 21
13 46 -23 67 l-35 20 0 401 0 400 -168 0 c-117 0 -172 -4 -180 -12z"/>
<path d="M620 1545 c0 -31 3 -35 40 -46 57 -17 113 -69 144 -134 21 -44 30
-55 50 -55 13 0 27 7 30 16 3 9 6 69 6 135 l0 119 -135 0 -135 0 0 -35z"/>
<path d="M695 1270 c-11 -32 -28 -59 -46 -72 -41 -30 -40 -78 1 -116 17 -15
37 -45 44 -67 16 -44 35 -61 60 -52 15 6 16 26 14 179 l-3 173 -27 3 c-23 3
-28 -2 -43 -48z"/>
<path d="M377 402 c-23 -26 -22 -94 1 -115 31 -29 37 -20 37 58 0 78 -8 90
-38 57z"/>
<path d="M447 392 c9 -15 18 -29 20 -31 2 -2 3 9 3 25 0 22 -5 30 -20 31 -19
2 -19 1 -3 -25z"/>
<path d="M507 402 c-23 -26 -22 -94 1 -115 31 -29 37 -20 37 58 0 78 -8 90
-38 57z"/>
<path d="M565 345 c0 -41 3 -75 6 -75 17 0 43 45 43 75 0 30 -26 75 -43 75 -3
0 -6 -34 -6 -75z"/>
<path d="M644 398 c17 -23 13 -91 -7 -115 -7 -10 -4 -13 11 -13 18 0 20 5 16
43 l-4 42 17 -45 16 -45 15 43 c12 38 12 47 -3 77 -13 29 -22 35 -46 35 -29 0
-30 -1 -15 -22z"/>
<path d="M728 345 l-3 -75 30 0 30 0 0 75 c0 75 0 75 -27 75 -26 0 -26 -1 -30
-75z"/>
<path d="M815 345 l0 -75 29 0 c22 0 27 4 22 16 -3 9 -6 42 -6 75 0 55 -2 59
-22 59 -22 0 -23 -4 -23 -75z"/>
<path d="M878 408 c15 -15 15 -51 0 -66 -9 -9 -8 -12 8 -12 26 0 44 19 44 45
0 26 -18 45 -44 45 -16 0 -17 -3 -8 -12z"/>
<path d="M958 358 c4 -66 14 -88 41 -88 13 0 16 12 16 75 l0 75 -30 0 -30 0 3
-62z"/>
<path d="M1048 408 c18 -18 15 -98 -5 -120 -9 -10 -11 -18 -6 -18 20 0 31 26
35 88 4 57 3 62 -16 62 -16 0 -17 -3 -8 -12z"/>
<path d="M1100 393 c0 -29 2 -29 19 5 10 18 9 22 -4 22 -10 0 -15 -9 -15 -27z"/>
<path d="M1140 361 c0 -33 -3 -66 -6 -75 -5 -13 1 -16 26 -16 25 0 31 3 26 16
-3 9 -6 42 -6 75 0 52 -2 59 -20 59 -18 0 -20 -7 -20 -59z"/>
<path d="M1201 398 c17 -34 19 -34 19 -5 0 18 -5 27 -15 27 -13 0 -14 -4 -4
-22z"/>
<path d="M1235 345 l0 -75 28 0 27 0 0 75 0 75 -27 0 -28 0 0 -75z"/>
<path d="M1315 400 c10 -11 20 -20 22 -20 1 0 3 9 3 20 0 14 -7 20 -22 20 -20
0 -21 -1 -3 -20z"/>
<path d="M1375 345 l0 -75 29 0 c22 0 27 4 22 16 -3 9 -6 42 -6 75 0 55 -2 59
-22 59 -22 0 -23 -4 -23 -75z"/>
<path d="M1447 354 c3 -74 7 -84 33 -84 22 0 39 22 22 28 -7 2 -12 12 -12 23
0 10 -5 19 -12 19 -9 0 -9 3 0 12 26 26 9 68 -27 68 -4 0 -6 -30 -4 -66z"/>
<path d="M1305 360 c-3 -5 -1 -18 4 -27 9 -16 10 -14 11 10 0 28 -5 34 -15 17z"/>
<path d="M445 290 c-10 -11 -13 -20 -8 -20 13 0 38 29 31 35 -3 3 -13 -4 -23
-15z"/>
<path d="M1315 290 c-18 -19 -17 -20 3 -20 15 0 22 6 22 20 0 11 -2 20 -3 20
-2 0 -12 -9 -22 -20z"/>
</g>
</svg>
